<svg xmlns="http://www.w3.org/2000/svg" width="56" height="99" viewBox="0 0 56 99">
    <g fill="#8D95A3" fill-rule="evenodd">
        <path d="M16.523 19.68V4.926a1.64 1.64 0 1 1 3.281 0V19.68h-3.281zm4.918 3.277a1.64 1.64 0 0 0 1.64-1.64V4.926A4.917 4.917 0 0 0 18.165.008a4.917 4.917 0 0 0-4.918 4.918v16.39c0 .907.734 1.641 1.64 1.641h6.555zM36.195 19.68V4.926a1.64 1.64 0 1 1 3.281 0V19.68h-3.281zm4.918 3.277a1.64 1.64 0 0 0 1.64-1.64V4.926A4.917 4.917 0 0 0 37.837.008a4.917 4.917 0 0 0-4.918 4.918v16.39c0 .907.734 1.641 1.64 1.641h6.555zM24.723 98.367h6.555a1.64 1.64 0 0 0 1.64-1.64V86.89a1.64 1.64 0 0 0-1.64-1.636h-6.555a1.64 1.64 0 0 0-1.64 1.636v9.836c0 .907.734 1.641 1.64 1.641zm1.637-9.836h3.28v6.559h-3.28V88.53zM24.723 72.137h-6.012a1.64 1.64 0 0 0-1.64 1.64c0 .907.734 1.637 1.64 1.637h6.012c.902 0 1.637-.73 1.637-1.636a1.64 1.64 0 0 0-1.637-1.641zM37.289 72.137h-6.012a1.64 1.64 0 0 0-1.64 1.64c0 .907.734 1.637 1.64 1.637h6.012c.906 0 1.64-.73 1.64-1.636a1.64 1.64 0 0 0-1.64-1.641zM24.723 78.695h-5.465a1.64 1.64 0 1 0 0 3.277h5.465a1.64 1.64 0 0 0 0-3.277zM36.742 78.695h-5.46a1.64 1.64 0 1 0 0 3.277h5.46a1.64 1.64 0 0 0 0-3.277z"/>
        <path d="M21.312 85.25l-1.367-16.391h16.109L34.687 85.25H21.312zm14.883 3.281c.855 0 1.563-.656 1.637-1.504l1.636-19.672a1.637 1.637 0 0 0-1.632-1.777H18.164c-.961 0-1.715.82-1.633 1.777l1.637 19.672a1.645 1.645 0 0 0 1.636 1.504h16.391zM46.031 26.234H9.969a1.64 1.64 0 1 1 0-3.277h36.062a1.64 1.64 0 0 1 0 3.277zm0 3.281a4.917 4.917 0 1 0 0-9.836H9.969a4.917 4.917 0 1 0 0 9.836h36.062z"/>
        <path d="M44.25 29.516l-2.68 31.492a4.921 4.921 0 0 1-4.906 4.57H19.336a4.92 4.92 0 0 1-4.906-4.554l-2.676-31.508H44.25zM36.664 68.86a8.201 8.201 0 0 0 8.176-7.594l2.828-33.254a1.644 1.644 0 0 0-1.637-1.777H9.97a1.64 1.64 0 0 0-1.633 1.777l2.825 33.273c.316 4.262 3.883 7.574 8.176 7.574l17.327.001z"/>
        <path d="M36.195 29.516v9.836a8.196 8.196 0 0 1-16.39 0v-9.836h16.39zM28 50.825c6.336 0 11.477-5.137 11.477-11.473V27.875a1.64 1.64 0 0 0-1.64-1.64H18.163a1.64 1.64 0 0 0-1.64 1.64v11.477c0 6.336 5.14 11.473 11.476 11.473zM1.77 98.367h52.461c.906 0 1.637-.734 1.637-1.64 0-.907-.73-1.641-1.637-1.641H1.77c-.906 0-1.637.734-1.637 1.64 0 .907.73 1.641 1.637 1.641z"/>
    </g>
</svg>
