<svg xmlns="http://www.w3.org/2000/svg" width="104" height="104" viewBox="0 0 104 104">
    <g fill="#8D95A3" fill-rule="evenodd">
        <path d="M69.174 59.06l.515-.517a1.171 1.171 0 0 0 0-1.657L55.374 42.538l-3.644-3.69a1.17 1.17 0 0 0-1.657 0l-3.033 2.963-2.078-2.082c3.413-3.818 6.694-8.391 4.876-10.213-1.405-1.409-4.69.07-9.624 4.396a1.182 1.182 0 0 0-.09 1.636c.416.48 1.137.541 1.627.14a23.553 23.553 0 0 1 6.154-4.243c-.412 1.174-1.945 3.74-5.428 7.52-.552.586-1.17 1.173-1.735 1.81-.565.635-1.171 1.173-1.806 1.738-3.775 3.525-6.355 5.02-7.493 5.441h.004a22.885 22.885 0 0 1 4.22-6.168 1.19 1.19 0 0 0 .31-.863 1.169 1.169 0 0 0-1.274-1.103 1.17 1.17 0 0 0-.808.425c-4.315 4.983-5.779 8.226-4.385 9.635v.004c.367.351.865.541 1.372.516 2.218 0 5.758-2.668 8.817-5.404l2.11 2.116-2.976 2.925a1.171 1.171 0 0 0 0 1.656l18.042 18.05a1.172 1.172 0 0 0 1.653 0l.515-.516 2.428 2.433v-.004a1.165 1.165 0 0 0 1.653 0l8.536-8.507a1.179 1.179 0 0 0 0-1.656l-2.486-2.434zm-26.71-16.605c.322-.322.635-.652.94-1l2.004 2.008-1.888 1.955-2.003-2.008c.305-.318.634-.636.948-.954zm8.397-1.173l2.04 2.09-9.497 9.52-2.028-2.033 9.485-9.577zM45 54.502l9.496-9.518 12.662 12.692-.515.516-8.429 8.565-.515.516-12.7-12.77zm17.282 14.606l-1.595-1.6 6.814-6.828 1.595 1.598-6.814 6.83z"/>
        <path d="M36.868 33.257c-.554-.551-1.812-.186-2.8.809-.987.994-1.366 2.21-.812 2.785.555.575 1.11.311 1.91-.12l3.002 3.003c.442.377 1.098.35 1.508-.058.41-.408.433-1.061.058-1.5l-3.022-3.007c.476-.762.554-1.511.156-1.912zM41 25.163c0-.307-.122-.606-.343-.823a1.155 1.155 0 0 0-.82-.34c-3.295.127-7.202 2.153-10.44 5.416-3.239 3.258-5.22 7.09-5.396 10.364v-.004c-.012.307.094.61.302.84.204.228.493.368.803.384h.057c.62 0 1.13-.487 1.159-1.11.15-2.676 1.95-6.066 4.722-8.85 2.774-2.783 6.22-4.658 8.9-4.74v.005A1.167 1.167 0 0 0 41 25.163zM39.8 16c-5.138.21-11.258 3.394-16.314 8.531-5.056 5.138-8.157 11.126-8.484 16.24A1.174 1.174 0 0 0 16.038 42h.057c.623 0 1.135-.49 1.168-1.115.246-4.479 3.228-10.118 7.808-14.704s10.312-7.663 14.81-7.84a1.17 1.17 0 0 0 1.118-1.217A1.17 1.17 0 0 0 39.787 16h.012z"/>
        <path d="M7.125 41h.058c.632 0 1.152-.48 1.185-1.099.341-6.303 4.637-14.204 11.203-20.624 6.567-6.42 14.822-10.71 21.293-10.967v.005a1.17 1.17 0 0 0 1.135-1.204 1.177 1.177 0 0 0-1.23-1.11c-7.17.276-15.721 4.627-22.89 11.638-7.17 7.006-11.487 15.196-11.877 22.15-.017.304.091.605.303.833.212.228.508.366.82.378zM103.661 14.687L89.315.336a1.16 1.16 0 0 0-1.633 0L53.336 34.693a1.16 1.16 0 0 0 0 1.633l14.338 14.342v-.004a1.16 1.16 0 0 0 1.632 0l34.355-34.344a1.153 1.153 0 0 0 0-1.633zM88.505 2.767l5.532 5.563-3.22 3.22-5.532-5.538 3.22-3.245zm3.37 22.006l-5.536-5.539 4.482-4.483 5.537 5.538-4.482 4.484zm-6.114 6.116l-5.536-5.538 4.482-4.484 5.536 5.539-4.482 4.483zm-6.07 6.178l-5.536-5.539 4.38-4.434 5.537 5.538-4.38 4.435zm-6.114 6.116l-5.581-5.538 4.482-4.484 5.536 5.514-4.437 4.508zm-8.223-17.188l5.536 5.538-4.527 4.48-5.536-5.539 4.527-4.48zm6.114-6.117l5.537 5.538-4.482 4.484-5.57-5.542 4.515-4.48zm6.115-6.116l5.536 5.538-4.584 4.48L73 18.24l4.584-4.48zm7.169 3.893l-5.537-5.538 4.482-4.484 5.48 5.559-4.425 4.463zM59.276 32.11l5.537 5.538-3.485 3.343-5.537-5.538 3.485-3.343zm9.265 16.113l-5.536-5.538 3.391-3.392 5.537 5.538-3.392 3.392zm29.446-29.507l-5.557-5.526 3.244-3.217 5.533 5.534-3.22 3.21zM36.33 53.336a1.16 1.16 0 0 0-1.632 0L.336 87.652a1.158 1.158 0 0 0 0 1.63l14.314 14.382a1.16 1.16 0 0 0 1.633 0l34.381-34.36a1.163 1.163 0 0 0 0-1.636L36.33 53.336zm-.834 2.452l5.536 5.532-3.22 3.217-5.525-5.532 3.209-3.217zm3.37 21.98l-5.536-5.532 4.482-4.437 5.537 5.531-4.482 4.438zm-6.114 6.109l-5.537-5.532 4.482-4.478 5.537 5.532-4.482 4.478zm-6.116 6.11L21.1 84.454l4.482-4.479 5.537 5.532-4.483 4.478zm-6.115 6.108l-5.536-5.531 4.482-4.478 5.606 5.568-4.552 4.441zm-8.187-17.131l5.537 5.531-4.507 4.474-5.537-5.531 4.507-4.474zm6.115-6.11l5.464 5.528-4.434 4.458-5.537-5.532 4.507-4.453zm6.115-6.109l5.537 5.532-4.482 4.478-5.562-5.487 4.507-4.523zm7.17 3.889l-5.505-5.52 4.483-4.478 5.537 5.532-4.515 4.466zM6.194 85.073l5.537 5.531-3.403 3.397-5.525-5.528 3.392-3.4zm9.267 16.094l-5.444-5.531 3.392-3.388 5.537 5.531-3.485 3.388zm29.541-29.472l-5.537-5.532 3.22-3.217 5.55 5.536-3.233 3.213zM61 56a5.001 5.001 0 0 0-3.085-4.62 5.004 5.004 0 0 0-6.535 6.535A4.997 4.997 0 0 0 56 61c2.762 0 5-2.238 5-5zm-5 2.647a2.645 2.645 0 0 1-1.87-4.517A2.645 2.645 0 0 1 58.647 56 2.648 2.648 0 0 1 56 58.6v.046z"/>
    </g>
</svg>
