<svg xmlns="http://www.w3.org/2000/svg" width="185" height="42" viewBox="0 0 185 42">
    <g fill="none" fill-rule="evenodd">
        <path fill="#202022" d="M47.858 34.985h6.828V13.482h6.611L59.65 7.145H40.795l1.707 6.337h5.356v21.503zm20.699-8.397c0 2.138.804 3.256 2.393 3.315h.353c1.59-.059 2.394-1.177 2.394-3.315V14.894h6.278v11.694c0 5.69-2.884 8.691-8.672 9.005h-.353c-5.788-.314-8.672-3.316-8.672-9.005V14.894h6.279v11.694zm27.055-6.337v14.714h6.258v-20.09c0-1.432.275-2.394.805-2.884.53-.471 1.589-.707 3.178-.687l-.039-5.807c-2.139 0-3.944.294-5.415.902-1.51.608-2.688 1.55-3.532 2.865-.843 1.314-1.255 3.178-1.255 5.61v5.377zm29.096 2.393c.098-1.824.882-2.786 2.373-2.845h.354c1.589.06 2.393 1.177 2.393 3.316v11.89h6.278v-11.89c0-5.69-2.884-8.691-8.671-9.005h-.354c-2.295.137-4.14.686-5.513 1.648-1.393-.962-3.237-1.511-5.532-1.648h-.353c-5.788.314-8.672 3.315-8.672 9.005v11.89h6.278v-11.89c0-2.139.804-3.257 2.394-3.316h.353c1.49.06 2.276 1.02 2.374 2.845v12.36h6.298v-12.36zm13.988 7.71c-1.06-1.647-1.589-3.492-1.589-5.532 0-1.51.314-2.943.922-4.277a10.217 10.217 0 0 1 2.531-3.434 11.906 11.906 0 0 1 3.708-2.256 12.114 12.114 0 0 1 4.336-.785c1.51 0 2.963.255 4.356.785a10.91 10.91 0 0 1 3.708 2.237c1.079 1 1.922 2.158 2.53 3.453.609 1.334.923 2.766.923 4.277 0 1.57-.295 3.002-.903 4.277a11.052 11.052 0 0 1-2.55 3.473 11.7 11.7 0 0 1-3.708 2.256 12.16 12.16 0 0 1-4.356.804 12.02 12.02 0 0 1-5.67-1.412c-1.785-.942-3.198-2.237-4.238-3.865zm9.908-.411c1.413 0 2.649-.51 3.688-1.511 1.04-1 1.57-2.217 1.57-3.61 0-.922-.235-1.766-.726-2.531a5.629 5.629 0 0 0-1.942-1.844 5.218 5.218 0 0 0-2.59-.687 5.2 5.2 0 0 0-2.57.687 5.629 5.629 0 0 0-1.942 1.844 4.586 4.586 0 0 0-.726 2.53c0 1.394.53 2.61 1.57 3.61 1.039 1.001 2.275 1.512 3.668 1.512zm23.995.02c1.412 0 2.648-.51 3.688-1.512 1.04-1 1.57-2.217 1.57-3.61 0-.922-.236-1.746-.726-2.51a5.629 5.629 0 0 0-1.943-1.845 5.218 5.218 0 0 0-2.59-.687 5.2 5.2 0 0 0-2.57.687 5.629 5.629 0 0 0-1.942 1.844 4.521 4.521 0 0 0-.726 2.512c0 1.392.53 2.609 1.57 3.61 1.04 1 2.276 1.51 3.669 1.51zm-11.497-4.984V7.027l6.258-.02v8.28l.903-.393a12.73 12.73 0 0 1 8.691 0 10.896 10.896 0 0 1 3.708 2.257 10.62 10.62 0 0 1 2.531 3.433 10.13 10.13 0 0 1 .922 4.258c0 1.57-.294 3.001-.902 4.277a10.756 10.756 0 0 1-2.55 3.453c-1.139 1.02-2.375 1.765-3.709 2.256a12.16 12.16 0 0 1-4.355.804 12.02 12.02 0 0 1-5.67-1.412c-1.786-.923-3.198-2.198-4.238-3.846-1.04-1.609-1.57-3.414-1.59-5.395z"/>
        <path fill="#FEC409" d="M16.72.74L33.2 6.607 16.72 15.544.242 6.607z" opacity=".797"/>
        <path fill="#202022" d="M33.23 6.607L16.734 41.205v-27.36z"/>
        <path fill="#35C0B7" d="M.242 6.607l16.494 34.598v-27.36z"/>
        <path fill="#202022" d="M90.554 14.08l1.614 5.626h-2.293c-1.75.052-2.624.926-2.624 2.624 0 1.697 0 5.91.004 12.638h-6.29V22.233c.408-5.436 3.365-8.154 8.869-8.154h.798zm1.127 0h12.98l1.522 5.626H93.125l-1.613-5.627z"/>
    </g>
</svg>
