<svg xmlns="http://www.w3.org/2000/svg" width="102" height="100" viewBox="0 0 102 100">
    <g fill="#8D95A3" fill-rule="evenodd">
        <path d="M85 71.383l-5.23-16.309 16.309 5.23-8.153 2.922L85 71.383zM83.46 58.77l1.849 5.54 1.078-2.77 2.77-1.078-5.696-1.692z"/>
        <path d="M87.883 61.605l5.438 5.438-1.633 1.632-5.438-5.437zM82.23 47.691H49V23.078h33.383v24.613h-.153zm-30.922-2.309h28.77v-20h-28.77v20z"/>
        <path d="M51 45.078l-1.691-1.54 8.46-9.386L61 37.692l4.77-6 8.152 9.077 3.23-3.691 4.77 5.23-1.692 1.54-3.078-3.387-3.23 3.691-8.153-8.922-4.617 6-3.383-3.691z"/>
        <path d="M73.617 35.078c-2 0-3.691-1.691-3.691-3.691 0-2 1.691-3.692 3.691-3.692 2 0 3.691 1.692 3.691 3.692 0 1.996-1.539 3.691-3.691 3.691zm0-4.926c-.77 0-1.383.617-1.383 1.383 0 .77.617 1.383 1.383 1.383.77 0 1.383-.617 1.383-1.383a1.38 1.38 0 0 0-1.383-1.383zM19.152 51.23V39.847l11.23 5.691-11.23 5.692zm2.309-7.691v3.847l3.847-2-3.847-1.847z"/>
        <path d="M36.691 55.539H11.308V35.383h25.383v20.156zM13.617 53.23h20.77l-.004-15.539H13.617v15.54zM72.848 24.77h2.309V9.23h-2.309z"/>
        <path d="M75.152 62.309H26.847v-8h2.305V60h43.695V46.152h2.304zM29.152 36.617h-2.309V7.695c0-4 3.23-7.383 7.383-7.383h42.617c3.692 0 6.461 2.922 6.461 6.77V10.312h-43.23l-1.23-.152.308-1.23c.153-.31.153-.923.153-1.384 0-2.769-2.31-5.078-5.079-5.078-2.77 0-5.078 2.309-5.078 5.078l.004 29.071zM41.461 8h39.383V6.922c0-2.617-1.691-4.461-4.152-4.461h-37.23c1.23 1.383 2 3.078 2 5.078V8h-.001z"/>
        <path d="M97.152 83.848H4.843C2.534 83.848.534 82 .534 79.539L.538 22c0-2.308 1.848-4.308 4.309-4.308h23.078V20H4.847c-1.078 0-2 .922-2 2v57.54c0 1.078.922 2 2 2h92.309c1.078 0 2-.922 2-2L99.152 22c0-1.078-.922-2-2-2H74.074v-2.308h23.078c2.309 0 4.309 1.848 4.309 4.308v57.54c0 2.308-2 4.308-4.309 4.308z"/>
        <path d="M1.77 76.618h98.46v-2.309H1.77zM23 62.309h56V60H23zM72.383 99.691H29.617v-7.23h42.77l-.004 7.23zm-40.461-2.309h38.152v-2.617l-38.152.004v2.613z"/>
        <path d="M65.461 94.77H36.539V81.54h28.922v13.23zm-26.613-2.309h24.309v-8.77H38.848v8.77z"/>
    </g>
</svg>
