<?xml version="1.0" encoding="UTF-8"?>
<svg width="28px" height="24px" viewBox="0 0 28 24" version="1.1" xmlns="http://www.w3.org/2000/svg" xmlns:xlink="http://www.w3.org/1999/xlink">
    <!-- Generator: Sketch 46.2 (44496) - http://www.bohemiancoding.com/sketch -->
    <title>Page 1</title>
    <desc>Created with Sketch.</desc>
    <defs></defs>
    <g id="Symbols" stroke="none" stroke-width="1" fill="none" fill-rule="evenodd">
        <g id="UI/Card/CardBottom__FavHover" transform="translate(-313.000000, -14.000000)" fill="#F93C57">
            <g id="UI/Card/CardBottom" transform="translate(0.000000, -1.000000)">
                <path d="M321.977054,34.9240145 C321.398894,34.4146305 319.703148,32.8832871 319.500038,32.6995446 C317.412048,30.8135636 315.770992,28.9674728 314.878002,27.7724176 C314.06559,26.6859737 313.428337,25.1707515 313.14033,23.8329168 C313.079075,23.5470554 312.979135,22.8732687 313.003853,22.0941719 C313.019973,21.5944716 313.071554,21.3709489 313.100569,21.2291049 C313.239197,20.5520995 313.492813,19.9008714 313.746433,19.3452697 C314.441705,17.8225096 315.778549,16.4629967 317.296935,15.7345192 C317.912703,15.4390016 318.730479,15.1767992 319.419314,15.0531946 C319.642837,15.0134337 320.765814,14.9854941 321.256932,15.0080609 C322.156387,15.0488975 323.135375,15.3347479 324.131502,15.8452049 C324.650542,16.110637 324.986912,16.3309299 325.388813,16.6640818 C325.652097,16.8822317 326.308708,17.5356138 326.511791,17.7816951 C326.597761,17.885935 326.674059,17.9729782 326.680507,17.9740539 C326.686956,17.9762024 326.772926,17.8794866 326.87179,17.7602039 C326.970655,17.6409212 327.179137,17.41525 327.33603,17.2605035 C328.175319,16.4276788 328.956562,15.9193676 330.0602,15.4873705 C330.447052,15.3358483 331.002654,15.1757318 331.570058,15.0725675 C331.789283,15.0328066 333.071304,15.0123883 333.4915,15.0424766 C334.040636,15.0811618 334.85734,15.2842689 335.536519,15.5518606 C337.210779,16.2095262 338.986058,17.7989166 339.794316,19.4118561 C340.072639,19.9663573 340.209119,20.4230863 340.31121,20.894836 C340.328404,20.9722093 340.34345,21.0517311 340.358492,21.1312556 C340.374611,21.2172259 340.389656,21.3042718 340.40685,21.3913149 C340.40685,21.3913149 340.502493,22.1414157 340.510015,22.5744857 C340.518623,23.1440351 340.491745,23.1558646 340.461657,23.530915 C340.422971,24.0155671 340.299389,24.4271514 340.226313,24.729134 C340.145715,25.0579668 339.921111,25.6920008 339.687933,26.1712884 C339.292469,26.9869191 338.969001,27.4178433 338.073838,28.5204358 C337.470973,29.2629987 336.957297,29.8132083 336.059988,30.6750566 C335.007932,31.6873597 334.478135,32.1784493 333.822616,32.7533909 C333.557184,32.9865862 333.248775,33.2584558 333.139145,33.3584013 C333.02846,33.4583414 332.765168,33.6754046 332.554548,33.8419806 C332.343922,34.0085483 332.083871,34.2138122 331.978533,34.2987096 C331.87322,34.3825312 331.573386,34.6211049 331.31333,34.8274335 C330.496599,35.4754428 329.920612,35.9342901 329.626167,36.1717881 C329.574585,36.2136976 329.468196,36.3028921 329.390823,36.3705953 C329.312374,36.4382959 329.121091,36.5962666 328.964191,36.7198409 C328.808369,36.8444964 328.492441,37.0948913 328.263526,37.2775609 C328.034631,37.460247 327.705806,37.7203145 327.533866,37.8578669 C327.361925,37.9943437 327.03202,38.2576217 326.799886,38.4424646 C326.567766,38.6273021 326.302345,38.7369121 326.235718,38.6778058 C324.718336,37.3377565 325.14926,37.7213902 321.977054,34.9240145 Z" id="Page-1"></path>
            </g>
        </g>
    </g>
</svg>