<svg xmlns="http://www.w3.org/2000/svg" width="103" height="102" viewBox="0 0 103 102">
    <g fill="#D7DADE" fill-rule="evenodd">
        <path d="M101.728 0H47.05c-.7 0-1.271.571-1.271 1.272v25.432a1.27 1.27 0 0 0 1.271 1.271h54.68A1.27 1.27 0 0 0 103 26.704V1.272A1.27 1.27 0 0 0 101.728 0zm-1.271 25.432H48.32V2.543h52.136v22.89z"/>
        <path d="M52.136 24.16H63.58a1.27 1.27 0 0 0 1.272-1.271V5.086a1.27 1.27 0 0 0-1.272-1.271H52.136c-.7 0-1.272.571-1.272 1.271V22.89a1.27 1.27 0 0 0 1.272 1.271zm1.271-17.802h8.902v15.26h-8.902V6.357zM71.21 12.716h8.901a1.27 1.27 0 0 0 1.272-1.272V5.086a1.27 1.27 0 0 0-1.272-1.271H71.21c-.7 0-1.272.571-1.272 1.271v6.358a1.27 1.27 0 0 0 1.272 1.272zm1.271-6.358h6.359v3.815H72.48V6.358zM86.47 12.716h8.9a1.27 1.27 0 0 0 1.272-1.272V5.086a1.27 1.27 0 0 0-1.272-1.271h-8.9c-.701 0-1.272.571-1.272 1.271v6.358a1.27 1.27 0 0 0 1.271 1.272zm1.27-6.358H94.1v3.815H87.74V6.358zM71.21 24.16h8.901a1.27 1.27 0 0 0 1.272-1.271V16.53a1.27 1.27 0 0 0-1.272-1.272H71.21c-.7 0-1.272.571-1.272 1.272v6.358a1.27 1.27 0 0 0 1.272 1.271zm1.271-6.358h6.359v3.815H72.48v-3.815zM86.47 24.16h8.9a1.27 1.27 0 0 0 1.272-1.271V16.53a1.27 1.27 0 0 0-1.272-1.272h-8.9c-.701 0-1.272.571-1.272 1.272v6.358a1.27 1.27 0 0 0 1.271 1.271zm1.27-6.358H94.1v3.815H87.74v-3.815z"/>
        <path d="M59.765 8.901h-3.814c-.7 0-1.272.571-1.272 1.272 0 .7.571 1.271 1.272 1.271h3.814c.7 0 1.272-.57 1.272-1.271 0-.7-.571-1.272-1.272-1.272zM59.765 12.716h-3.814c-.7 0-1.272.571-1.272 1.272 0 .7.571 1.271 1.272 1.271h3.814c.7 0 1.272-.571 1.272-1.271s-.571-1.272-1.272-1.272zM61.037 69.938H38.148a5.084 5.084 0 0 0-5.086 5.087 5.084 5.084 0 0 0 5.086 5.086h10.173v14.435L37.627 99.3a1.277 1.277 0 0 0-.651 1.679c.288.64 1.038.934 1.679.65l10.938-4.872 10.922 4.858a1.272 1.272 0 1 0 1.029-2.33l-10.68-4.739V80.111h10.173a5.084 5.084 0 0 0 5.086-5.086 5.084 5.084 0 0 0-5.086-5.087zm0 7.63H38.148a2.542 2.542 0 0 1-2.543-2.543 2.542 2.542 0 0 1 2.543-2.544h22.889a2.542 2.542 0 0 1 2.543 2.544 2.542 2.542 0 0 1-2.543 2.543zM45.092 40.423a1.288 1.288 0 0 0-.034-1.823 1.288 1.288 0 0 0-1.823.03l-4.352 4.351a1.271 1.271 0 0 0 .01 1.798 1.271 1.271 0 0 0 1.798-.005l4.401-4.351zM48.053 38.784l-7.466 7.476h.005a1.277 1.277 0 0 0-.447.919c-.015.352.124.695.372.948.249.249.596.383.95.373.352-.015.685-.179.913-.447l7.476-7.466.005.005a1.272 1.272 0 0 0-1.793-1.793l-.015-.015zM85.198 69.938h5.086c.7 0 1.272-.571 1.272-1.271s-.572-1.272-1.272-1.272h-5.086c-.7 0-1.272.571-1.272 1.272 0 .7.571 1.271 1.272 1.271zM90.284 80.111h-5.086c-.7 0-1.272.571-1.272 1.272 0 .7.571 1.271 1.272 1.271h5.086c.7 0 1.272-.57 1.272-1.271 0-.7-.572-1.272-1.272-1.272zM90.284 92.827h-5.086c-.7 0-1.272.571-1.272 1.272 0 .7.571 1.271 1.272 1.271h5.086c.7 0 1.272-.57 1.272-1.271 0-.7-.572-1.272-1.272-1.272z"/>
        <path d="M103 33.062a1.27 1.27 0 0 0-1.272-1.272H75.025c-.7 0-1.272.571-1.272 1.272V55.95h-7.719c.05-.209.08-.423.09-.636a3.18 3.18 0 0 0-2.544-3.18v-16.53a1.27 1.27 0 0 0-1.271-1.272H36.877c-.7 0-1.272.572-1.272 1.272v16.53a3.145 3.145 0 0 0-2.543 3.816h-18.34a6.492 6.492 0 0 0-5.145-4.362L3.904 34.397 22.75 11.444l.393.8c.04.069.08.133.129.193a8.806 8.806 0 0 0-1.083 9.398l2.543 5.2a1.273 1.273 0 0 0 1.704.572l13.685-6.75v-.006a1.268 1.268 0 0 0 .571-1.778l-2.543-5.2a8.802 8.802 0 0 0-8.136-4.908v-.179l-2.25-4.565h-.005a1.266 1.266 0 0 0-1.704-.571l-1.142.561-.562-1.142v-.005a1.265 1.265 0 0 0-1.654-.497c-.6.293-.87.999-.62 1.614l.56 1.143-1.142.561h-.005a1.303 1.303 0 0 0-.67.745c-.115.328-.085.69.074.999l.725 1.45c-.218.07-.407.199-.561.368L.293 34.804c-.308.377-.372.899-.164 1.34a1.28 1.28 0 0 0 1.143.731c.248-.01.486-.094.685-.243L6.93 51.727a6.357 6.357 0 0 0-4.485 4.222 1.273 1.273 0 0 0-1.172 1.272v43.234c0 .7.571 1.272 1.271 1.272s1.272-.571 1.272-1.272V63.58h68.667v36.876a1.27 1.27 0 0 0 1.271 1.272h27.976a1.27 1.27 0 0 0 1.271-1.272V63.58a1.264 1.264 0 0 0-.189-.636c.12-.194.184-.412.19-.636v-5.086a1.264 1.264 0 0 0-.19-.636c.12-.194.184-.412.19-.636L103 33.062zm-70.728-21.2a6.247 6.247 0 0 1 3.611 3.169l2.012 4.043-11.445 5.623-2.006-4.068-.005-.005a6.45 6.45 0 0 1 3-8.48 6.265 6.265 0 0 1 4.798-.317l.035.035zm-4.808-2.414h.005c-.383.124-.75.273-1.108.447-.402.203-.79.437-1.157.695l-1.46-2.96 2.275-1.118 1.445 2.936zm47.56 66.848h25.433v10.173H75.024V76.296zm25.433-20.346h-6.358V34.333h6.358V55.95zm-15.26-21.617h6.358V55.95h-6.358V34.333zm-8.901 0h6.358V55.95h-6.358V34.333zm-38.148 2.543h22.889v15.26h-22.89v-15.26zM36.012 55.95a.644.644 0 0 1-.522-.75.644.644 0 0 1 .75-.521h26.704c.353-.08.7.144.775.496a.648.648 0 0 1-.497.775h-27.21zM8.583 54.043a3.94 3.94 0 0 1 3.358 1.907H5.216a3.901 3.901 0 0 1 3.367-1.907zm-4.768 6.994v-2.544h96.642v2.544H3.815zm96.642 2.543v10.173H75.025V63.58h25.432zM75.025 99.185V89.012h25.432v10.173H75.025z"/>
        <path d="M80.111 50.864H78.84c-.7 0-1.272.571-1.272 1.272 0 .7.571 1.271 1.272 1.271h1.271c.7 0 1.272-.57 1.272-1.271 0-.7-.572-1.272-1.272-1.272zM89.012 50.864h-1.271c-.7 0-1.272.571-1.272 1.272 0 .7.571 1.271 1.272 1.271h1.271c.7 0 1.272-.57 1.272-1.271 0-.7-.571-1.272-1.272-1.272zM96.642 53.407h1.272c.7 0 1.271-.57 1.271-1.271 0-.7-.571-1.272-1.271-1.272h-1.272c-.7 0-1.272.571-1.272 1.272 0 .7.572 1.271 1.272 1.271zM27.186 78.84H9.87a1.288 1.288 0 0 0-.993.447c-.249.293-.348.68-.278 1.053l3.814 20.345c.11.611.646 1.053 1.272 1.043h9.691-.005c.621.01 1.162-.432 1.272-1.043l3.814-20.345c.07-.373-.034-.76-.278-1.053a1.288 1.288 0 0 0-.993-.447zm-4.883 20.345h-7.63l-3.228-17.802H25.65l-3.348 17.802z"/>
    </g>
</svg>
