<svg xmlns="http://www.w3.org/2000/svg" xmlns:xlink="http://www.w3.org/1999/xlink" width="100" height="93" viewBox="0 0 100 93">
    <defs>
        <path id="a" d="M90.156 44.602V23.844c.004-.043.02-.082.02-.125a2.21 2.21 0 0 0-1.25-1.992l-42.7-20.555a2.207 2.207 0 0 0-1.914 0L1.597 21.688c-.058.027-.082.062-.113.097-.035.02-.07.028-.105.047a2.214 2.214 0 0 0-1.036 1.871v45.953c0 .848.489 1.625 1.25 1.993l42.695 20.559c.305.144.633.218.961.218.313 0 .625-.09.914-.218.016-.004.032.007.047.004L69.308 81.09a20.908 20.908 0 0 0 9.317 2.199c11.617 0 21.07-9.453 21.07-21.07 0-7.367-3.805-13.848-9.54-17.617l.001-.001zM45.265 5.618l37.578 18.094-15.137 7.29-22.453 10.78-8.043-3.871 19.434-9.383a2.214 2.214 0 0 0 1.25-1.992c0-.848-.488-1.625-1.254-1.988l-17.44-8.38a2.198 2.198 0 0 0-1.923.005L14.734 27.09l-7.082-3.406L45.265 5.618zM16.949 33.091l12.969 6.242v16.18l-5.523-7.465a2.205 2.205 0 0 0-2.856-.613l-4.59 2.574V33.091zm2.867-3.555l18.422-8.926 12.344 5.93-18.465 8.918-12.3-5.922zM4.761 27.224l7.766 3.738.004 22.82a2.2 2.2 0 0 0 1.094 1.906 2.23 2.23 0 0 0 2.199.024l6.18-3.465 8.347 11.285a2.21 2.21 0 0 0 2.469.785 2.208 2.208 0 0 0 1.52-2.098l-.005-20.758 8.707 4.192V86.7L4.762 68.27V27.224zm42.7 59.477V45.654l22.21-10.695 16.062-7.715v15.168a20.957 20.957 0 0 0-7.113-1.262c-11.617 0-21.07 9.45-21.07 21.066 0 .23.027.457.035.688l-4.3 2.07a2.204 2.204 0 0 0-1.032 2.95 2.207 2.207 0 0 0 2.95 1.03l3.042-1.464a20.57 20.57 0 0 0 1.16 3.328l-6.117 2.945a2.205 2.205 0 0 0-1.03 2.95 2.207 2.207 0 0 0 2.948 1.03l6.442-3.101a21.282 21.282 0 0 0 3.347 3.613L47.46 86.701zm31.163-7.832c-9.18 0-16.652-7.469-16.652-16.652 0-9.18 7.469-16.648 16.652-16.648 9.18 0 16.648 7.469 16.648 16.648 0 9.183-7.469 16.652-16.648 16.652z"/>
    </defs>
    <g fill="none" fill-rule="evenodd">
        <use fill="#D7DADE" xlink:href="#a"/>
        <path stroke="#FFF" stroke-width=".6" d="M46.139 91.913l-.059.028c.168-.028.168-.028.18-.022-.03-.01-.035-.012-.121-.006zm43.717-47.378v.067h.3l-.271-.128-.029.06zM1.733 21.955l-.008.004.008-.004zm43.532-16.67l38.27 18.427-.562.27-15.137 7.29-22.583 10.843-8.734-4.204.56-.27 19.434-9.383a1.914 1.914 0 0 0 1.081-1.722c0-.733-.423-1.404-1.084-1.718l-17.442-8.38a1.898 1.898 0 0 0-1.66.005l-22.673 10.98-7.775-3.739L45.265 5.285zM16.65 32.614l13.569 6.53v17.279l-.541-.731-5.524-7.465a1.905 1.905 0 0 0-2.467-.53l-5.037 2.825V32.614zm2.477-3.077l19.112-9.26 13.036 6.262-19.157 9.252-12.99-6.254zm-14.665-2.79l8.366 4.027v.188l.004 22.82a1.9 1.9 0 0 0 .944 1.647 1.929 1.929 0 0 0 1.902.021l6.41-3.594.158.213 8.347 11.284a1.91 1.91 0 0 0 2.134.679 1.908 1.908 0 0 0 1.313-1.813l-.004-21.235 9.307 4.48v41.713L4.462 68.458V26.746zm42.7 60.431V45.465l.169-.081 22.211-10.696 16.492-7.92v16.07l-.401-.144a20.646 20.646 0 0 0-7.012-1.244c-11.452 0-20.77 9.316-20.77 20.766 0 .091.004.181.014.324l.004.056c.01.146.014.213.017.298l.007.195-.177.085-4.301 2.07a1.904 1.904 0 0 0-.89 2.55 1.906 1.906 0 0 0 2.548.89l3.372-1.623.092.354c.3 1.16.68 2.257 1.143 3.28l.12.266-.263.127-6.118 2.946a1.906 1.906 0 0 0-.89 2.548 1.906 1.906 0 0 0 2.548.891l6.666-3.21.147.201a20.977 20.977 0 0 0 3.3 3.563l.352.298-18.38 8.853zm31.463-8.01c-9.346 0-16.952-7.604-16.952-16.951 0-9.346 7.604-16.948 16.952-16.948 9.345 0 16.948 7.603 16.948 16.948 0 9.348-7.602 16.952-16.948 16.952z"/>
        <path fill="#D7DADE" d="M81.066 50.711v-2.387h-4.418v2.336c-3.117.219-5.586 2.715-5.586 5.758v2.426c0 3.5 2.422 4.597 3.863 4.941.051.012.102.024.153.031l6.094 1c.59.247.59.512.59.692v2.433c0 .75-.715 1.36-1.598 1.36h-3.067c-.875 0-1.617-.621-1.617-1.36v-1.14h-4.418v1.14c0 3.043 2.469 5.54 5.586 5.758v2.41h4.418v-2.46c2.89-.422 5.113-2.817 5.113-5.707v-2.434c0-2.273-1.386-4.117-3.71-4.922a1.947 1.947 0 0 0-.368-.094l-6.219-1.02c-.246-.066-.336-.132-.343-.132-.008-.016-.059-.133-.059-.492v-2.426c0-.75.723-1.36 1.61-1.36h3.066c.887 0 1.61.61 1.61 1.36v1.129h4.417v-1.129c.004-2.894-2.222-5.29-5.117-5.71v-.001z"/>
    </g>
</svg>
