<?xml version="1.0" encoding="UTF-8"?>
<svg width="166px" height="34px" viewBox="0 0 166 34" version="1.1" xmlns="http://www.w3.org/2000/svg" xmlns:xlink="http://www.w3.org/1999/xlink">
    <!-- Generator: Sketch 46.2 (44496) - http://www.bohemiancoding.com/sketch -->
    <title>userLogo</title>
    <desc>Created with Sketch.</desc>
    <defs></defs>
    <g id="UI" stroke="none" stroke-width="1" fill="none" fill-rule="evenodd">
        <g id="Pages_ColorSelector" transform="translate(-222.000000, -571.000000)" fill="#ffffff">
            <g id="userLogo" transform="translate(223.000000, 572.000000)">
                <path d="M58.0826342,5.30331655 C58.6751758,5.46156945 58.9714421,5.84840407 58.9714421,6.46383202 L58.9714421,6.50339505 C58.9714421,6.89023548 58.8168684,7.20673653 58.5077163,7.45290771 C58.2071517,7.69028707 57.872242,7.76062063 57.5029769,7.66391053 C56.9018479,7.50565762 56.2921404,7.42653236 55.6738362,7.42653236 C53.6643475,7.42653236 51.9468616,8.15624313 50.5213269,9.61568656 C49.0957922,11.07513 48.3830355,12.837865 48.3830355,14.9039446 C48.3830355,16.9700241 49.0957922,18.7327592 50.5213269,20.1922026 C51.9468616,21.6428542 53.6643475,22.3681691 55.6738362,22.3681691 C56.2921404,22.3681691 56.9018479,22.2934397 57.5029769,22.1439786 C57.872242,22.0472685 58.2071517,22.1176021 58.5077163,22.3549815 C58.8168684,22.5923608 58.9714421,22.9088619 58.9714421,23.3044941 L58.9714421,23.3308695 C58.9714421,23.9550892 58.6751758,24.3463197 58.0826342,24.5045726 C57.2925789,24.7067847 56.4896542,24.8078892 55.6738362,24.8078892 C53.0031055,24.8078892 50.7231429,23.8408026 48.8338801,21.9066005 C46.9446173,19.9723983 46,17.6382031 46,14.9039446 C46,12.1696861 46.9446173,9.83549082 48.8338801,7.90128869 C50.7231429,5.96708656 53.0031055,5 55.6738362,5 C56.4896542,5 57.2925789,5.1011045 58.0826342,5.30331655 Z M70.9639074,14.2709361 C70.0622138,13.3390024 68.9673165,12.8730425 67.6791828,12.8730425 C66.391049,12.8730425 65.291858,13.3390024 64.3815768,14.2709361 C63.4798832,15.2028699 63.0290431,16.328207 63.0290431,17.6469812 C63.0290431,18.9569635 63.4798832,20.0779048 64.3815768,21.0098385 C65.291858,21.9417723 66.391049,22.4077322 67.6791828,22.4077322 C68.9673165,22.4077322 70.0622138,21.9417723 70.9639074,21.0098385 C71.8741886,20.0779048 72.3293224,18.9569635 72.3293224,17.6469812 C72.3293224,16.328207 71.8741886,15.2028699 70.9639074,14.2709361 Z M62.7070113,12.5169752 C64.0810207,11.1102828 65.7383946,10.4069471 67.6791828,10.4069471 C69.619971,10.4069471 71.2773449,11.1102828 72.6513542,12.5169752 C74.0253636,13.9236677 74.7123579,15.620465 74.7123579,17.6074181 C74.7123579,19.5943712 74.0253636,21.2911686 72.6513542,22.697861 C71.2773449,24.1045535 69.619971,24.8078892 67.6791828,24.8078892 C65.7383946,24.8078892 64.0810207,24.1045535 62.7070113,22.697861 C61.333002,21.2911686 60.6460076,19.5943712 60.6460076,17.6074181 C60.6460076,15.620465 61.333002,13.9236677 62.7070113,12.5169752 Z M79.2852099,23.6078107 C79.2852099,23.9419001 79.1692796,24.2232344 78.9374155,24.4518219 C78.7055514,24.6892013 78.4307537,24.8078892 78.113014,24.8078892 L78.0743702,24.8078892 C77.7566306,24.8078892 77.4818328,24.6892013 77.2499687,24.4518219 C77.0181047,24.2232344 76.9021744,23.9419001 76.9021744,23.6078107 L76.9021744,16.394152 C76.9021744,14.7412883 77.4732384,13.3302211 78.6153837,12.160908 C79.757529,10.9915949 81.1358114,10.4069471 82.7502724,10.4069471 C84.3561458,10.4069471 85.7301345,10.9915949 86.8722798,12.160908 C88.0144251,13.3302211 88.5854891,14.7412883 88.5854891,16.394152 L88.5854891,23.6078107 C88.5854891,23.9419001 88.4695588,24.2232344 88.2376948,24.4518219 C88.0144182,24.6892013 87.7396205,24.8078892 87.4132933,24.8078892 L87.3875307,24.8078892 C87.0612035,24.8078892 86.782112,24.6892013 86.550248,24.4518219 C86.3183839,24.2232344 86.2024536,23.9419001 86.2024536,23.6078107 L86.2024536,16.394152 C86.2024536,15.4182591 85.8675438,14.5830479 85.1977143,13.8884935 C84.5192972,13.1939391 83.7034914,12.8466671 82.7502724,12.8466671 C81.7884658,12.8466671 80.9683663,13.1939391 80.2899492,13.8884935 C79.6201196,14.5830479 79.2852099,15.4182591 79.2852099,16.394152 L79.2852099,23.6078107 Z M93.5447793,23.6078107 C93.5447793,23.9419001 93.428849,24.2232344 93.1969849,24.4518219 C92.9651209,24.6892013 92.6903231,24.8078892 92.3725834,24.8078892 L92.3339396,24.8078892 C92.0162,24.8078892 91.7414022,24.6892013 91.5095381,24.4518219 C91.2776741,24.2232344 91.1617438,23.9419001 91.1617438,23.6078107 L91.1617438,16.394152 C91.1617438,14.7412883 91.7328078,13.3302211 92.8749531,12.160908 C94.0170984,10.9915949 95.3953808,10.4069471 97.0098418,10.4069471 C98.6157152,10.4069471 99.9897039,10.9915949 101.131849,12.160908 C102.273994,13.3302211 102.845059,14.7412883 102.845059,16.394152 L102.845059,23.6078107 C102.845059,23.9419001 102.729128,24.2232344 102.497264,24.4518219 C102.273988,24.6892013 101.99919,24.8078892 101.672863,24.8078892 L101.6471,24.8078892 C101.320773,24.8078892 101.041681,24.6892013 100.809817,24.4518219 C100.577953,24.2232344 100.462023,23.9419001 100.462023,23.6078107 L100.462023,16.394152 C100.462023,15.4182591 100.127113,14.5830479 99.4572837,13.8884935 C98.7788666,13.1939391 97.9630608,12.8466671 97.0098418,12.8466671 C96.0480353,12.8466671 95.2279357,13.1939391 94.5495186,13.8884935 C93.8796891,14.5830479 93.5447793,15.4182591 93.5447793,16.394152 L93.5447793,23.6078107 Z M115.623282,14.5742527 C114.695825,13.4401069 113.51076,12.8730425 112.06805,12.8730425 C110.779916,12.8730425 109.680725,13.3390024 108.770444,14.2709361 C107.868751,15.2028699 107.417911,16.328207 107.417911,17.6469812 C107.417911,17.8843605 107.435085,18.1173405 107.469436,18.345928 L115.623282,14.5742527 Z M115.90667,11.5806503 C117.048815,12.3455393 117.89897,13.3565843 118.457162,14.6138157 C118.594563,14.9127379 118.607444,15.2204472 118.495805,15.536953 C118.384167,15.844667 118.178069,16.0688552 117.877504,16.2095245 C116.675246,16.7634096 115.095159,17.4931204 113.137196,18.3986787 C110.706917,19.5240327 109.131123,20.2537434 108.409769,20.5878329 C109.337225,21.8011051 110.55664,22.4077322 112.06805,22.4077322 C113.072794,22.4077322 113.983062,22.1044186 114.79888,21.4977825 C115.588935,20.9087301 116.142825,20.1438525 116.460564,19.2031269 C116.649491,18.6580336 117.027337,18.385491 117.594116,18.385491 C117.997732,18.385491 118.31976,18.5569291 118.560212,18.8998104 C118.792076,19.2338998 118.839307,19.5987552 118.701906,19.9943875 C118.221003,21.4186636 117.379434,22.5703758 116.177176,23.4495585 C114.949155,24.3551168 113.57946,24.8078892 112.06805,24.8078892 C110.127262,24.8078892 108.469888,24.1045535 107.095879,22.697861 C105.721869,21.2911686 105.034875,19.5943712 105.034875,17.6074181 C105.034875,15.620465 105.721869,13.9236677 107.095879,12.5169752 C108.469888,11.1102828 110.127262,10.4069471 112.06805,10.4069471 C113.467822,10.4069471 114.747349,10.7981776 115.90667,11.5806503 Z M129.86997,10.7498267 C130.419573,10.9256632 130.694371,11.308102 130.694371,11.8971545 L130.694371,11.9630929 C130.694371,12.3675169 130.535504,12.6884138 130.217764,12.9257932 C129.891437,13.1719644 129.539352,13.2335063 129.1615,13.1104207 C128.706359,12.9521678 128.23405,12.8730425 127.74456,12.8730425 C126.456426,12.8730425 125.357235,13.3390024 124.446954,14.2709361 C123.54526,15.2028699 123.09442,16.328207 123.09442,17.6469812 C123.09442,18.9569635 123.54526,20.0779048 124.446954,21.0098385 C125.357235,21.9417723 126.456426,22.4077322 127.74456,22.4077322 C128.23405,22.4077322 128.706359,22.3330027 129.1615,22.1835417 C129.539352,22.0604561 129.891437,22.1176021 130.217764,22.3549815 C130.535504,22.5923608 130.694371,22.9176536 130.694371,23.3308695 C130.694371,23.9111301 130.419573,24.2935689 129.86997,24.4781973 C129.182965,24.697993 128.474502,24.8078892 127.74456,24.8078892 C125.803771,24.8078892 124.146397,24.1045535 122.772388,22.697861 C121.398379,21.2911686 120.711384,19.5943712 120.711384,17.6074181 C120.711384,15.620465 121.398379,13.9236677 122.772388,12.5169752 C124.146397,11.1102828 125.803771,10.4069471 127.74456,10.4069471 C128.474502,10.4069471 129.182965,10.5212392 129.86997,10.7498267 Z M134.095027,5 C134.412767,5 134.687565,5.11429205 134.919429,5.34287957 C135.151293,5.58025893 135.267223,5.86598905 135.267223,6.2000785 L135.267223,10.4069471 L137.585852,10.4069471 C137.903592,10.4069471 138.17839,10.525635 138.410254,10.7630144 C138.642118,11.0003937 138.758048,11.2861238 138.758048,11.6202133 L138.758048,11.6465886 C138.758048,11.9806781 138.642118,12.2620124 138.410254,12.4905999 C138.17839,12.7279792 137.903592,12.8466671 137.585852,12.8466671 L135.267223,12.8466671 L135.267223,21.0625892 C135.267223,21.4230542 135.391741,21.7307635 135.64078,21.9857265 C135.889819,22.2406895 136.194673,22.3681691 136.55535,22.3681691 L137.585852,22.3681691 C137.903592,22.3681691 138.17839,22.486857 138.410254,22.7242364 C138.642118,22.9616157 138.758048,23.2473458 138.758048,23.5814353 L138.758048,23.6078107 C138.758048,23.9419001 138.642118,24.2232344 138.410254,24.4518219 C138.17839,24.6892013 137.903592,24.8078892 137.585852,24.8078892 L136.55535,24.8078892 C135.542019,24.8078892 134.674688,24.4430338 133.953333,23.7133121 C133.240566,22.9747985 132.884188,22.0912331 132.884188,21.0625892 L132.884188,6.2000785 C132.884188,5.86598905 133.000118,5.58025893 133.231982,5.34287957 C133.463846,5.11429205 133.738644,5 134.056383,5 L134.095027,5 Z M153.24948,6.2000785 C153.24948,5.86598905 153.13355,5.58025893 152.901686,5.34287957 C152.669822,5.11429205 152.395024,5 152.077285,5 L152.038641,5 C151.720901,5 151.446103,5.11429205 151.214239,5.34287957 C150.982375,5.58025893 150.866445,5.86598905 150.866445,6.2000785 L150.866445,18.385491 C150.866445,19.4844695 150.488598,20.425181 149.732893,21.2076536 C148.9686,21.9813345 148.045452,22.3681691 146.963419,22.3681691 C145.889974,22.3681691 144.971119,21.9813345 144.206827,21.2076536 C143.451122,20.425181 143.073275,19.4844695 143.073275,18.385491 L143.073275,6.2000785 C143.073275,5.86598905 142.957344,5.58025893 142.72548,5.34287957 C142.493616,5.11429205 142.218818,5 141.901079,5 L141.862435,5 C141.544695,5 141.269898,5.11429205 141.038034,5.34287957 C140.806169,5.58025893 140.690239,5.86598905 140.690239,6.2000785 L140.690239,18.385491 C140.690239,20.1614402 141.30424,21.673612 142.532261,22.9220515 C143.760282,24.1792829 145.23732,24.8078892 146.963419,24.8078892 C148.698106,24.8078892 150.179438,24.1792829 151.407458,22.9220515 C152.635479,21.673612 153.24948,20.1614402 153.24948,18.385491 L153.24948,6.2000785 Z M159.561304,12.8466671 C159.080401,12.8466671 158.672498,13.0181052 158.337583,13.3609865 C158.002669,13.7126596 157.835214,14.1302652 157.835214,14.6138157 C157.835214,15.2995783 158.152949,15.8138925 158.788428,16.1567738 C158.985942,16.2622757 159.728754,16.4908598 161.016888,16.8425329 C161.978695,17.1238714 162.682864,17.484331 163.129417,17.9239224 C163.764896,18.5393503 164.082631,19.4317075 164.082631,20.6010206 C164.082631,21.7615418 163.683316,22.7550035 162.884673,23.5814353 C162.077442,24.3990753 161.107063,24.8078892 159.973505,24.8078892 L156.611493,24.8078892 C156.293753,24.8078892 156.018955,24.6892013 155.787091,24.4518219 C155.555227,24.2232344 155.439297,23.9419001 155.439297,23.6078107 L155.439297,23.5814353 C155.439297,23.2473458 155.555227,22.9616157 155.787091,22.7242364 C156.018955,22.486857 156.293753,22.3681691 156.611493,22.3681691 L160.102318,22.3681691 C160.583221,22.3681691 160.991124,22.1967311 161.326039,21.8538498 C161.660954,21.5109685 161.828408,21.0933629 161.828408,20.6010206 C161.828408,19.9504253 161.510674,19.466882 160.875194,19.1503762 C160.729206,19.0800416 159.986393,18.8514575 158.646734,18.4646171 C157.693515,18.1744867 156.989346,17.8052355 156.534205,17.3568523 C155.898726,16.7150489 155.580991,15.8007125 155.580991,14.6138157 C155.580991,13.4532944 155.980306,12.4642286 156.778949,11.6465886 C157.58618,10.8201568 158.556559,10.4069471 159.690117,10.4069471 L162.060271,10.4069471 C162.386599,10.4069471 162.66569,10.525635 162.897554,10.7630144 C163.129418,11.0003937 163.245348,11.2861238 163.245348,11.6202133 L163.245348,11.6465886 C163.245348,11.9806781 163.129418,12.2620124 162.897554,12.4905999 C162.66569,12.7279792 162.386599,12.8466671 162.060271,12.8466671 L159.561304,12.8466671 Z" id="ConnectUs"></path>
                <path d="M30.1650894,20.6023158 C30.405578,19.5370779 30.5344195,18.4517412 30.5344195,17.365279 C30.5344195,12.322885 28.0264426,7.73038311 23.825352,5.08248309 C23.5689098,4.92169246 23.2363965,5.00334516 23.0805667,5.26337254 C22.9235119,5.52465731 23.0032674,5.86508322 23.2572533,6.02587385 C27.135879,8.47166005 29.4511811,12.7099401 29.4511811,17.3654719 C29.4511811,18.3226907 29.3432059,19.2786231 29.1407528,20.2195055 C28.8916733,20.1667469 28.6327747,20.1378528 28.3677604,20.1378528 C26.2769839,20.1378528 24.5764572,21.8789259 24.5764572,24.0193385 C24.5764572,26.1585935 26.2770782,27.9008242 28.3677604,27.9008242 C30.4584427,27.9008242 32.1590573,26.1597512 32.1590573,24.0193385 C32.1590573,22.5445991 31.3517076,21.2595282 30.1651899,20.6025377 L30.1650894,20.6023158 Z M28.3675343,26.7914686 C26.8742885,26.7914686 25.6595638,25.5478496 25.6595638,24.0190845 C25.6595638,22.4903194 26.8742885,21.2467003 28.3675343,21.2467003 C29.86078,21.2467003 31.0755048,22.4903194 31.0755048,24.0190845 C31.0755048,25.5478496 29.86078,26.7914686 28.3675343,26.7914686 Z" id="Fill-1" stroke="#ffffff"></path>
                <path d="M20.6732518,29.5268764 C19.0941285,30.1951544 17.4241018,30.5343261 15.7065504,30.5343261 C12.2488316,30.5343261 8.92241066,29.1060552 6.49057393,26.6023525 C7.16540705,25.9014018 7.58260746,24.9404206 7.58260746,23.8814857 C7.58260746,21.7422307 5.88198653,20 3.79130427,20 C1.70062106,20 0,21.741073 0,23.8814857 C0,26.0207407 1.70062106,27.7629714 3.79130427,27.7629714 C4.45511214,27.7629714 5.07965631,27.5858509 5.62196658,27.2780912 C8.26491639,30.0554913 11.9126401,31.6432347 15.7064561,31.6432347 C17.5665819,31.6432347 19.3777694,31.275185 21.0880964,30.550373 C21.3641705,30.433549 21.4954651,30.109453 21.381346,29.8255611 C21.2672362,29.5429201 20.9494452,29.4097565 20.6733743,29.5265902 L20.6732518,29.5268764 Z M1.08443221,23.8815179 C1.08443221,22.3527527 2.29915695,21.1091337 3.79240365,21.1091337 C5.2856494,21.1091337 6.50037415,22.3527527 6.50037415,23.8815179 C6.50037415,25.410283 5.2856494,26.653902 3.79240365,26.653902 C2.29915727,26.653902 1.08443221,25.410283 1.08443221,23.8815179 Z" id="Fill-2" stroke="#ffffff"></path>
                <path d="M2.50458193,17.3074064 C2.51807859,17.3086638 2.53034866,17.3086638 2.54261746,17.3086638 C2.82482612,17.3086638 3.0616208,17.0863193 3.08250909,16.7936193 C3.46779596,11.1997134 7.19043478,6.52552996 12.408738,4.97550833 C12.8701022,6.58466875 14.3240843,7.76297461 16.0429864,7.76297461 C18.1337629,7.76297461 19.8342896,6.02190156 19.8342896,3.88148891 C19.8342896,1.74223396 18.1336686,0 16.0429864,0 C13.95711,0 12.2601642,1.73351911 12.2529396,3.86766092 C6.52295183,5.50193684 2.42350709,10.6018939 2.00134313,16.7157966 C1.98048436,17.021048 2.20502437,17.2860888 2.50442111,17.3074418 L2.50458193,17.3074064 Z M16.043335,1.11032358 C17.5365808,1.11032358 18.7513055,2.3539426 18.7513055,3.88270771 C18.7513055,5.41147281 17.5365808,6.65509183 16.043335,6.65509183 C14.5500893,6.65509183 13.3353645,5.41147281 13.3353645,3.88270771 C13.3353645,2.3539426 14.5500893,1.11032358 16.043335,1.11032358 Z" id="Fill-3" stroke="#ffffff"></path>
            </g>
        </g>
    </g>
</svg>